<?xml version="1.0" encoding="UTF-8" standalone="no"?>
<!-- Created with Inkscape (http://www.inkscape.org/) -->

<svg
   xmlns:dc="http://purl.org/dc/elements/1.1/"
   xmlns:cc="http://creativecommons.org/ns#"
   xmlns:rdf="http://www.w3.org/1999/02/22-rdf-syntax-ns#"
   xmlns:svg="http://www.w3.org/2000/svg"
   xmlns="http://www.w3.org/2000/svg"
   xmlns:sodipodi="http://sodipodi.sourceforge.net/DTD/sodipodi-0.dtd"
   xmlns:inkscape="http://www.inkscape.org/namespaces/inkscape"
   version="1.1"
   id="svg2"
   xml:space="preserve"
   width="664.27521"
   height="243.40871"
   viewBox="0 0 664.27521 243.40871"
   sodipodi:docname="rotated_bar.svg"
   inkscape:version="0.92.5 (2060ec1f9f, 2020-04-08)"><metadata
     id="metadata8"><rdf:RDF><cc:Work
         rdf:about=""><dc:format>image/svg+xml</dc:format><dc:type
           rdf:resource="http://purl.org/dc/dcmitype/StillImage" /><dc:title></dc:title></cc:Work></rdf:RDF></metadata><defs
     id="defs6"><clipPath
       clipPathUnits="userSpaceOnUse"
       id="clipPath24"><path
         d="M 1143,4917 H 4147 V 6307 H 1143 Z"
         id="path22"
         inkscape:connector-curvature="0" /></clipPath><clipPath
       clipPathUnits="userSpaceOnUse"
       id="clipPath44"><path
         d="M 1143,4917 H 4147 V 6307 H 1143 Z"
         id="path42"
         inkscape:connector-curvature="0" /></clipPath><clipPath
       clipPathUnits="userSpaceOnUse"
       id="clipPath64"><path
         d="M 1143,4917 H 4147 V 6307 H 1143 Z"
         id="path62"
         inkscape:connector-curvature="0" /></clipPath><clipPath
       clipPathUnits="userSpaceOnUse"
       id="clipPath84"><path
         d="M 1143,4917 H 4147 V 6307 H 1143 Z"
         id="path82"
         inkscape:connector-curvature="0" /></clipPath><clipPath
       clipPathUnits="userSpaceOnUse"
       id="clipPath104"><path
         d="M 1143,4917 H 4147 V 6307 H 1143 Z"
         id="path102"
         inkscape:connector-curvature="0" /></clipPath><clipPath
       clipPathUnits="userSpaceOnUse"
       id="clipPath124"><path
         d="M 1143,4917 H 4147 V 6307 H 1143 Z"
         id="path122"
         inkscape:connector-curvature="0" /></clipPath><clipPath
       clipPathUnits="userSpaceOnUse"
       id="clipPath148"><path
         d="M 1143,4917 H 4147 V 6307 H 1143 Z"
         id="path146"
         inkscape:connector-curvature="0" /></clipPath><clipPath
       clipPathUnits="userSpaceOnUse"
       id="clipPath168"><path
         d="M 1143,4917 H 4147 V 6307 H 1143 Z"
         id="path166"
         inkscape:connector-curvature="0" /></clipPath><clipPath
       clipPathUnits="userSpaceOnUse"
       id="clipPath188"><path
         d="M 1143,4917 H 4147 V 6307 H 1143 Z"
         id="path186"
         inkscape:connector-curvature="0" /></clipPath><clipPath
       clipPathUnits="userSpaceOnUse"
       id="clipPath208"><path
         d="M 1143,4917 H 4147 V 6307 H 1143 Z"
         id="path206"
         inkscape:connector-curvature="0" /></clipPath><clipPath
       clipPathUnits="userSpaceOnUse"
       id="clipPath232"><path
         d="M 1143,4917 H 4147 V 6307 H 1143 Z"
         id="path230"
         inkscape:connector-curvature="0" /></clipPath><clipPath
       clipPathUnits="userSpaceOnUse"
       id="clipPath296"><path
         d="M 1143,2778 H 4147 V 4168 H 1143 Z"
         id="path294"
         inkscape:connector-curvature="0" /></clipPath><clipPath
       clipPathUnits="userSpaceOnUse"
       id="clipPath316"><path
         d="M 1143,2778 H 4147 V 4168 H 1143 Z"
         id="path314"
         inkscape:connector-curvature="0" /></clipPath><clipPath
       clipPathUnits="userSpaceOnUse"
       id="clipPath336"><path
         d="M 1143,2778 H 4147 V 4168 H 1143 Z"
         id="path334"
         inkscape:connector-curvature="0" /></clipPath><clipPath
       clipPathUnits="userSpaceOnUse"
       id="clipPath356"><path
         d="M 1143,2778 H 4147 V 4168 H 1143 Z"
         id="path354"
         inkscape:connector-curvature="0" /></clipPath><clipPath
       clipPathUnits="userSpaceOnUse"
       id="clipPath376"><path
         d="M 1143,2778 H 4147 V 4168 H 1143 Z"
         id="path374"
         inkscape:connector-curvature="0" /></clipPath><clipPath
       clipPathUnits="userSpaceOnUse"
       id="clipPath396"><path
         d="M 1143,2778 H 4147 V 4168 H 1143 Z"
         id="path394"
         inkscape:connector-curvature="0" /></clipPath><clipPath
       clipPathUnits="userSpaceOnUse"
       id="clipPath420"><path
         d="M 1143,2778 H 4147 V 4168 H 1143 Z"
         id="path418"
         inkscape:connector-curvature="0" /></clipPath><clipPath
       clipPathUnits="userSpaceOnUse"
       id="clipPath440"><path
         d="M 1143,2778 H 4147 V 4168 H 1143 Z"
         id="path438"
         inkscape:connector-curvature="0" /></clipPath><clipPath
       clipPathUnits="userSpaceOnUse"
       id="clipPath460"><path
         d="M 1143,2778 H 4147 V 4168 H 1143 Z"
         id="path458"
         inkscape:connector-curvature="0" /></clipPath><clipPath
       clipPathUnits="userSpaceOnUse"
       id="clipPath480"><path
         d="M 1143,2778 H 4147 V 4168 H 1143 Z"
         id="path478"
         inkscape:connector-curvature="0" /></clipPath><clipPath
       clipPathUnits="userSpaceOnUse"
       id="clipPath504"><path
         d="M 1143,2778 H 4147 V 4168 H 1143 Z"
         id="path502"
         inkscape:connector-curvature="0" /></clipPath><clipPath
       clipPathUnits="userSpaceOnUse"
       id="clipPath568"><path
         d="m 1143,639.898 h 3004 v 1390 H 1143 Z"
         id="path566"
         inkscape:connector-curvature="0" /></clipPath><clipPath
       clipPathUnits="userSpaceOnUse"
       id="clipPath588"><path
         d="m 1143,639.898 h 3004 v 1390 H 1143 Z"
         id="path586"
         inkscape:connector-curvature="0" /></clipPath><clipPath
       clipPathUnits="userSpaceOnUse"
       id="clipPath608"><path
         d="m 1143,639.898 h 3004 v 1390 H 1143 Z"
         id="path606"
         inkscape:connector-curvature="0" /></clipPath><clipPath
       clipPathUnits="userSpaceOnUse"
       id="clipPath628"><path
         d="m 1143,639.898 h 3004 v 1390 H 1143 Z"
         id="path626"
         inkscape:connector-curvature="0" /></clipPath><clipPath
       clipPathUnits="userSpaceOnUse"
       id="clipPath648"><path
         d="m 1143,639.898 h 3004 v 1390 H 1143 Z"
         id="path646"
         inkscape:connector-curvature="0" /></clipPath><clipPath
       clipPathUnits="userSpaceOnUse"
       id="clipPath668"><path
         d="m 1143,639.898 h 3004 v 1390 H 1143 Z"
         id="path666"
         inkscape:connector-curvature="0" /></clipPath><clipPath
       clipPathUnits="userSpaceOnUse"
       id="clipPath692"><path
         d="m 1143,639.898 h 3004 v 1390 H 1143 Z"
         id="path690"
         inkscape:connector-curvature="0" /></clipPath><clipPath
       clipPathUnits="userSpaceOnUse"
       id="clipPath712"><path
         d="m 1143,639.898 h 3004 v 1390 H 1143 Z"
         id="path710"
         inkscape:connector-curvature="0" /></clipPath><clipPath
       clipPathUnits="userSpaceOnUse"
       id="clipPath732"><path
         d="m 1143,639.898 h 3004 v 1390 H 1143 Z"
         id="path730"
         inkscape:connector-curvature="0" /></clipPath><clipPath
       clipPathUnits="userSpaceOnUse"
       id="clipPath752"><path
         d="m 1143,639.898 h 3004 v 1390 H 1143 Z"
         id="path750"
         inkscape:connector-curvature="0" /></clipPath><clipPath
       clipPathUnits="userSpaceOnUse"
       id="clipPath776"><path
         d="m 1143,639.898 h 3004 v 1390 H 1143 Z"
         id="path774"
         inkscape:connector-curvature="0" /></clipPath></defs><sodipodi:namedview
     pagecolor="#ffffff"
     bordercolor="#666666"
     borderopacity="1"
     objecttolerance="10"
     gridtolerance="10"
     guidetolerance="10"
     inkscape:pageopacity="0"
     inkscape:pageshadow="2"
     inkscape:window-width="1920"
     inkscape:window-height="960"
     id="namedview4"
     showgrid="false"
     inkscape:zoom="1.5451593"
     inkscape:cx="350.06143"
     inkscape:cy="95.741962"
     inkscape:window-x="0"
     inkscape:window-y="27"
     inkscape:window-maximized="1"
     inkscape:current-layer="g10" /><g
     id="g10"
     inkscape:groupmode="layer"
     inkscape:label="ink_ext_XXXXXX"
     transform="matrix(1.3333333,0,0,-1.3333333,-28.753191,272.93983)"><path
       inkscape:connector-curvature="0"
       id="path560"
       style="fill:#ffffff;fill-opacity:1;fill-rule:nonzero;stroke:none;stroke-width:0.1"
       d="M 114.288,63.9922 H 414.72 v 139.036 H 114.288 Z" /><g
       id="g562"
       transform="scale(0.1)"><g
         clip-path="url(#clipPath568)"
         id="g564"><path
           inkscape:connector-curvature="0"
           id="path570"
           style="fill:none;stroke:#dad7cb;stroke-width:10;stroke-linecap:butt;stroke-linejoin:round;stroke-miterlimit:10;stroke-dasharray:37, 16;stroke-dashoffset:0;stroke-opacity:1"
           d="M 1278.34,639.922 V 2030.29" /></g></g><path
       inkscape:connector-curvature="0"
       id="path572"
       style="fill:#000000;fill-opacity:1;fill-rule:nonzero;stroke:none;stroke-width:0.1"
       d="m 127.834,63.9922 v -3.5" /><path
       inkscape:connector-curvature="0"
       id="path574"
       style="fill:none;stroke:#000000;stroke-width:0.80000001;stroke-linecap:butt;stroke-linejoin:round;stroke-miterlimit:10;stroke-dasharray:none;stroke-opacity:1"
       d="m 127.834,63.9922 v -3.5" /><g
       id="g576"><text
         id="text580"
         style="font-variant:normal;font-weight:normal;font-size:16px;font-family:Arial;-inkscape-font-specification:Arial;writing-mode:lr-tb;fill:#000000;fill-opacity:1;fill-rule:nonzero;stroke:none"
         transform="matrix(1,0,0,-1,115.1,44.8359)"><tspan
           id="tspan578"
           sodipodi:role="line"
           y="0"
           x="0 10.179687 15.265623">0.0</tspan></text>
</g><g
       id="g582"
       transform="scale(0.1)"><g
         clip-path="url(#clipPath588)"
         id="g584"><path
           inkscape:connector-curvature="0"
           id="path590"
           style="fill:none;stroke:#dad7cb;stroke-width:10;stroke-linecap:butt;stroke-linejoin:round;stroke-miterlimit:10;stroke-dasharray:37, 16;stroke-dashoffset:0;stroke-opacity:1"
           d="M 1824.8,639.922 V 2030.29" /></g></g><path
       inkscape:connector-curvature="0"
       id="path592"
       style="fill:#000000;fill-opacity:1;fill-rule:nonzero;stroke:none;stroke-width:0.1"
       d="m 182.48,63.9922 v -3.5" /><path
       inkscape:connector-curvature="0"
       id="path594"
       style="fill:none;stroke:#000000;stroke-width:0.80000001;stroke-linecap:butt;stroke-linejoin:round;stroke-miterlimit:10;stroke-dasharray:none;stroke-opacity:1"
       d="m 182.48,63.9922 v -3.5" /><g
       id="g596"><text
         id="text600"
         style="font-variant:normal;font-weight:normal;font-size:16px;font-family:Arial;-inkscape-font-specification:Arial;writing-mode:lr-tb;fill:#000000;fill-opacity:1;fill-rule:nonzero;stroke:none"
         transform="matrix(1,0,0,-1,169.746,44.8359)"><tspan
           id="tspan598"
           sodipodi:role="line"
           y="0"
           x="0 10.179687 15.265623">0.1</tspan></text>
</g><g
       id="g602"
       transform="scale(0.1)"><g
         clip-path="url(#clipPath608)"
         id="g604"><path
           inkscape:connector-curvature="0"
           id="path610"
           style="fill:none;stroke:#dad7cb;stroke-width:10;stroke-linecap:butt;stroke-linejoin:round;stroke-miterlimit:10;stroke-dasharray:37, 16;stroke-dashoffset:0;stroke-opacity:1"
           d="M 2371.26,639.922 V 2030.29" /></g></g><path
       inkscape:connector-curvature="0"
       id="path612"
       style="fill:#000000;fill-opacity:1;fill-rule:nonzero;stroke:none;stroke-width:0.1"
       d="m 237.126,63.9922 v -3.5" /><path
       inkscape:connector-curvature="0"
       id="path614"
       style="fill:none;stroke:#000000;stroke-width:0.80000001;stroke-linecap:butt;stroke-linejoin:round;stroke-miterlimit:10;stroke-dasharray:none;stroke-opacity:1"
       d="m 237.126,63.9922 v -3.5" /><g
       id="g616"><text
         id="text620"
         style="font-variant:normal;font-weight:normal;font-size:16px;font-family:Arial;-inkscape-font-specification:Arial;writing-mode:lr-tb;fill:#000000;fill-opacity:1;fill-rule:nonzero;stroke:none"
         transform="matrix(1,0,0,-1,224.392,44.8359)"><tspan
           id="tspan618"
           sodipodi:role="line"
           y="0"
           x="0 10.179687 15.265635">0.2</tspan></text>
</g><g
       id="g622"
       transform="scale(0.1)"><g
         clip-path="url(#clipPath628)"
         id="g624"><path
           inkscape:connector-curvature="0"
           id="path630"
           style="fill:none;stroke:#dad7cb;stroke-width:10;stroke-linecap:butt;stroke-linejoin:round;stroke-miterlimit:10;stroke-dasharray:37, 16;stroke-dashoffset:0;stroke-opacity:1"
           d="M 2917.72,639.922 V 2030.29" /></g></g><path
       inkscape:connector-curvature="0"
       id="path632"
       style="fill:#000000;fill-opacity:1;fill-rule:nonzero;stroke:none;stroke-width:0.1"
       d="m 291.772,63.9922 v -3.5" /><path
       inkscape:connector-curvature="0"
       id="path634"
       style="fill:none;stroke:#000000;stroke-width:0.80000001;stroke-linecap:butt;stroke-linejoin:round;stroke-miterlimit:10;stroke-dasharray:none;stroke-opacity:1"
       d="m 291.772,63.9922 v -3.5" /><g
       id="g636"><text
         id="text640"
         style="font-variant:normal;font-weight:normal;font-size:16px;font-family:Arial;-inkscape-font-specification:Arial;writing-mode:lr-tb;fill:#000000;fill-opacity:1;fill-rule:nonzero;stroke:none"
         transform="matrix(1,0,0,-1,279.038,44.8359)"><tspan
           id="tspan638"
           sodipodi:role="line"
           y="0"
           x="0 10.179687 15.265635">0.3</tspan></text>
</g><g
       id="g642"
       transform="scale(0.1)"><g
         clip-path="url(#clipPath648)"
         id="g644"><path
           inkscape:connector-curvature="0"
           id="path650"
           style="fill:none;stroke:#dad7cb;stroke-width:10;stroke-linecap:butt;stroke-linejoin:round;stroke-miterlimit:10;stroke-dasharray:37, 16;stroke-dashoffset:0;stroke-opacity:1"
           d="M 3464.18,639.922 V 2030.29" /></g></g><path
       inkscape:connector-curvature="0"
       id="path652"
       style="fill:#000000;fill-opacity:1;fill-rule:nonzero;stroke:none;stroke-width:0.1"
       d="m 346.418,63.9922 v -3.5" /><path
       inkscape:connector-curvature="0"
       id="path654"
       style="fill:none;stroke:#000000;stroke-width:0.80000001;stroke-linecap:butt;stroke-linejoin:round;stroke-miterlimit:10;stroke-dasharray:none;stroke-opacity:1"
       d="m 346.418,63.9922 v -3.5" /><g
       id="g656"><text
         id="text660"
         style="font-variant:normal;font-weight:normal;font-size:16px;font-family:Arial;-inkscape-font-specification:Arial;writing-mode:lr-tb;fill:#000000;fill-opacity:1;fill-rule:nonzero;stroke:none"
         transform="matrix(1,0,0,-1,333.684,44.8359)"><tspan
           id="tspan658"
           sodipodi:role="line"
           y="0"
           x="0 10.179687 15.265635">0.4</tspan></text>
</g><g
       id="g662"
       transform="scale(0.1)"><g
         clip-path="url(#clipPath668)"
         id="g664"><path
           inkscape:connector-curvature="0"
           id="path670"
           style="fill:none;stroke:#dad7cb;stroke-width:10;stroke-linecap:butt;stroke-linejoin:round;stroke-miterlimit:10;stroke-dasharray:37, 16;stroke-dashoffset:0;stroke-opacity:1"
           d="M 4010.64,639.922 V 2030.29" /></g></g><path
       inkscape:connector-curvature="0"
       id="path672"
       style="fill:#000000;fill-opacity:1;fill-rule:nonzero;stroke:none;stroke-width:0.1"
       d="m 401.064,63.9922 v -3.5" /><path
       inkscape:connector-curvature="0"
       id="path674"
       style="fill:none;stroke:#000000;stroke-width:0.80000001;stroke-linecap:butt;stroke-linejoin:round;stroke-miterlimit:10;stroke-dasharray:none;stroke-opacity:1"
       d="m 401.064,63.9922 v -3.5" /><g
       id="g676"><text
         id="text680"
         style="font-variant:normal;font-weight:normal;font-size:16px;font-family:Arial;-inkscape-font-specification:Arial;writing-mode:lr-tb;fill:#000000;fill-opacity:1;fill-rule:nonzero;stroke:none"
         transform="matrix(1,0,0,-1,388.33,44.8359)"><tspan
           id="tspan678"
           sodipodi:role="line"
           y="0"
           x="0 10.179687 15.265635">0.5</tspan></text>
<text
         id="text684"
         style="font-variant:normal;font-weight:normal;font-size:20px;font-family:Arial;-inkscape-font-specification:Arial;writing-mode:lr-tb;fill:#000000;fill-opacity:1;fill-rule:nonzero;stroke:none"
         transform="matrix(1,0,0,-1,260.489,22.3046)"><tspan
           id="tspan682"
           y="0"
           x="0">t</tspan></text>
</g><g
       id="g686"
       transform="scale(0.1)"><g
         clip-path="url(#clipPath692)"
         id="g688"><path
           inkscape:connector-curvature="0"
           id="path694"
           style="fill:none;stroke:#dad7cb;stroke-width:10;stroke-linecap:butt;stroke-linejoin:round;stroke-miterlimit:10;stroke-dasharray:37, 16;stroke-dashoffset:0;stroke-opacity:1"
           d="M 1142.88,790.676 H 4147.2" /></g></g><path
       inkscape:connector-curvature="0"
       id="path696"
       style="fill:#000000;fill-opacity:1;fill-rule:nonzero;stroke:none;stroke-width:0.1"
       d="m 114.287,79.0676 h -3.5" /><path
       inkscape:connector-curvature="0"
       id="path698"
       style="fill:none;stroke:#000000;stroke-width:0.80000001;stroke-linecap:butt;stroke-linejoin:round;stroke-miterlimit:10;stroke-dasharray:none;stroke-opacity:1"
       d="m 114.287,79.0676 h -3.5" /><g
       id="g700"><text
         id="text704"
         style="font-variant:normal;font-weight:normal;font-size:16px;font-family:Arial;-inkscape-font-specification:Arial;writing-mode:lr-tb;fill:#000000;fill-opacity:1;fill-rule:nonzero;stroke:none"
         transform="matrix(1,0,0,-1,40.2875,73.1145)"><tspan
           id="tspan702"
           sodipodi:role="line"
           y="0"
           x="0 10.179687 15.265623 25.445311 35.624996 45.804684 55.984371">0.00000</tspan></text>
</g><g
       id="g706"
       transform="scale(0.1)"><g
         clip-path="url(#clipPath712)"
         id="g708"><path
           inkscape:connector-curvature="0"
           id="path714"
           style="fill:none;stroke:#dad7cb;stroke-width:10;stroke-linecap:butt;stroke-linejoin:round;stroke-miterlimit:10;stroke-dasharray:37, 16;stroke-dashoffset:0;stroke-opacity:1"
           d="M 1142.88,1141.38 H 4147.2" /></g></g><path
       inkscape:connector-curvature="0"
       id="path716"
       style="fill:#000000;fill-opacity:1;fill-rule:nonzero;stroke:none;stroke-width:0.1"
       d="m 114.287,114.138 h -3.5" /><path
       inkscape:connector-curvature="0"
       id="path718"
       style="fill:none;stroke:#000000;stroke-width:0.80000001;stroke-linecap:butt;stroke-linejoin:round;stroke-miterlimit:10;stroke-dasharray:none;stroke-opacity:1"
       d="m 114.287,114.138 h -3.5" /><g
       id="g720"><text
         id="text724"
         style="font-variant:normal;font-weight:normal;font-size:16px;font-family:Arial;-inkscape-font-specification:Arial;writing-mode:lr-tb;fill:#000000;fill-opacity:1;fill-rule:nonzero;stroke:none"
         transform="matrix(1,0,0,-1,40.2875,108.185)"><tspan
           id="tspan722"
           sodipodi:role="line"
           y="0"
           x="0 10.179687 15.265623 25.445311 35.624996 45.804684 55.984371">0.00002</tspan></text>
</g><g
       id="g726"
       transform="scale(0.1)"><g
         clip-path="url(#clipPath732)"
         id="g728"><path
           inkscape:connector-curvature="0"
           id="path734"
           style="fill:none;stroke:#dad7cb;stroke-width:10;stroke-linecap:butt;stroke-linejoin:round;stroke-miterlimit:10;stroke-dasharray:37, 16;stroke-dashoffset:0;stroke-opacity:1"
           d="M 1142.88,1492.09 H 4147.2" /></g></g><path
       inkscape:connector-curvature="0"
       id="path736"
       style="fill:#000000;fill-opacity:1;fill-rule:nonzero;stroke:none;stroke-width:0.1"
       d="m 114.287,149.209 h -3.5" /><path
       inkscape:connector-curvature="0"
       id="path738"
       style="fill:none;stroke:#000000;stroke-width:0.80000001;stroke-linecap:butt;stroke-linejoin:round;stroke-miterlimit:10;stroke-dasharray:none;stroke-opacity:1"
       d="m 114.287,149.209 h -3.5" /><g
       id="g740"><text
         id="text744"
         style="font-variant:normal;font-weight:normal;font-size:16px;font-family:Arial;-inkscape-font-specification:Arial;writing-mode:lr-tb;fill:#000000;fill-opacity:1;fill-rule:nonzero;stroke:none"
         transform="matrix(1,0,0,-1,40.2875,143.256)"><tspan
           id="tspan742"
           sodipodi:role="line"
           y="0"
           x="0 10.179687 15.265623 25.445311 35.624996 45.804684 55.984371">0.00004</tspan></text>
</g><g
       id="g746"
       transform="scale(0.1)"><g
         clip-path="url(#clipPath752)"
         id="g748"><path
           inkscape:connector-curvature="0"
           id="path754"
           style="fill:none;stroke:#dad7cb;stroke-width:10;stroke-linecap:butt;stroke-linejoin:round;stroke-miterlimit:10;stroke-dasharray:37, 16;stroke-dashoffset:0;stroke-opacity:1"
           d="M 1142.88,1842.8 H 4147.2" /></g></g><path
       inkscape:connector-curvature="0"
       id="path756"
       style="fill:#000000;fill-opacity:1;fill-rule:nonzero;stroke:none;stroke-width:0.1"
       d="m 114.287,184.28 h -3.5" /><path
       inkscape:connector-curvature="0"
       id="path758"
       style="fill:none;stroke:#000000;stroke-width:0.80000001;stroke-linecap:butt;stroke-linejoin:round;stroke-miterlimit:10;stroke-dasharray:none;stroke-opacity:1"
       d="m 114.287,184.28 h -3.5" /><g
       id="g760"><text
         id="text764"
         style="font-variant:normal;font-weight:normal;font-size:16px;font-family:Arial;-inkscape-font-specification:Arial;writing-mode:lr-tb;fill:#000000;fill-opacity:1;fill-rule:nonzero;stroke:none"
         transform="matrix(1,0,0,-1,40.2875,178.327)"><tspan
           id="tspan762"
           sodipodi:role="line"
           y="0"
           x="0 10.179687 15.265623 25.445311 35.624996 45.804684 55.984371">0.00006</tspan></text>
<text
         id="text768"
         style="font-variant:normal;font-weight:normal;font-size:20px;font-family:Arial;-inkscape-font-specification:Arial;writing-mode:lr-tb;fill:#000000;fill-opacity:1;fill-rule:nonzero;stroke:none"
         transform="matrix(0,1,1,0,32.1313,127.073)"><tspan
           id="tspan766"
           y="0"
           x="0">u</tspan></text>
</g><g
       id="g770"
       transform="scale(0.1)"><g
         clip-path="url(#clipPath776)"
         id="g772"><path
           inkscape:connector-curvature="0"
           id="path778"
           style="fill:none;stroke:#005293;stroke-width:20;stroke-linecap:square;stroke-linejoin:round;stroke-miterlimit:10;stroke-dasharray:none;stroke-opacity:1"
           d="m 1279.43,790.676 912.59,1.105 15.3,2.567 10.93,3.89 9.84,5.84 8.74,7.746 8.74,10.797 8.75,14.492 8.74,18.789 9.84,26.93 9.83,33.637 10.93,45.691 12.03,60.52 13.11,77.85 15.3,104.6 20.77,159.29 44.81,349.93 14.21,92.4 12.02,64.59 9.83,41.66 8.75,27.57 6.55,14.45 5.47,7.8 4.37,3.39 4.37,0.85 4.38,-1.72 4.37,-4.29 5.46,-8.95 6.56,-15.92 7.65,-25.53 8.74,-37.89 9.84,-52.87 12.02,-77.55 15.3,-115.01 21.86,-183.62 36.07,-303.28 16.39,-119.48 14.21,-88.024 12.02,-61.602 10.93,-45.281 9.84,-32.082 8.74,-21.875 8.74,-16.004 7.65,-9.555 6.56,-5.179 6.56,-2.664 6.56,-0.414 7.64,1.996 8.75,5.023 9.84,8.379 14.2,15.465 37.16,42.265 12.02,9.426 9.84,4.957 8.74,2.086 8.75,-0.152 8.74,-2.301 9.83,-4.906 12.03,-8.715 17.49,-15.98 27.32,-25.032 13.11,-8.851 10.93,-4.739 9.84,-1.914 9.84,0.395 9.83,2.621 10.93,5.227 13.11,8.785 24.05,19.48 19.67,14.68 13.12,7.18 12.02,3.988 10.93,1.195 10.93,-1.148 10.93,-3.344 13.11,-6.406 18.58,-11.887 29.51,-18.832 14.21,-6.246 12.02,-2.938 10.93,-0.57 12.02,1.723 12.03,3.992 14.2,7.078 25.14,15.648 20.76,11.848 14.21,5.617 12.03,2.52 12.02,0.25 12.02,-2 13.12,-4.453 17.48,-8.594 39.35,-20.484 14.2,-4.387 12.02,-1.535 12.03,0.621 13.11,3.019 15.31,6.059 25.13,12.969 21.86,10.34 14.21,4.472 13.11,1.887 13.12,-0.492 13.11,-2.774 15.3,-5.609 26.23,-12.57 20.77,-8.926 15.3,-4.153 13.11,-1.335 13.12,0.812 14.21,3.094 17.49,6.172 45.9,17.41 15.3,2.582 14.21,0.047 14.2,-2.149 17.49,-5.015 55.74,-17.977 16.39,-1.777 15.3,0.543 17.49,2.914 27.32,7.293 27.33,6.527 18.58,2.027 17.48,-0.367 19.68,-2.687 5.46,-1.051 v 0" /><path
           inkscape:connector-curvature="0"
           id="path780"
           style="fill:none;stroke:#005293;stroke-width:15;stroke-linecap:butt;stroke-linejoin:round;stroke-miterlimit:10;stroke-dasharray:15, 24.75;stroke-dashoffset:0;stroke-opacity:1"
           d="M 2464.51,738.172 V 1967.09" /><path
           inkscape:connector-curvature="0"
           id="path782"
           style="fill:none;stroke:#e37222;stroke-width:20;stroke-linecap:square;stroke-linejoin:round;stroke-miterlimit:10;stroke-dasharray:none;stroke-opacity:1"
           d="m 1279.43,790.676 1813.16,1.094 16.39,2.546 12.02,4.039 9.84,5.508 9.84,8.258 8.74,10.281 8.74,13.633 8.75,17.516 9.83,24.918 9.84,30.926 10.93,41.793 12.02,55.132 13.11,70.72 15.31,95.03 19.67,137.63 60.11,433.34 14.21,80.46 10.93,50.38 9.83,35.26 7.65,20.16 6.56,11.9 5.47,5.98 4.37,2.14 4.37,-0.25 4.37,-2.64 5.46,-6.7 5.47,-10.45 6.56,-17.44 7.65,-26.96 8.74,-39.16 10.93,-60.57 12.02,-79.78 15.3,-117.5 22.95,-196.66 34.98,-299.14 16.39,-121.371 14.21,-88.933 12.02,-61.586 10.93,-44.461 9.84,-30.571 8.74,-19.843 7.65,-11.969 6.56,-6.484 6.56,-3.247 5.46,-0.41 6.56,2.004 6.55,4.449 7.66,7.844 9.83,13.453 14.21,23.887 33.88,58.898 10.93,14.278 9.84,9.32 8.74,5.102 7.65,1.902 7.65,-0.465 7.65,-2.711 8.74,-5.562 10.93,-10.004 14.21,-16.461 36.07,-43.277 12.02,-10.282 9.84,-5.726 8.74,-2.828 8.74,-0.649 8.75,1.477 9.83,3.996 10.93,6.902 14.21,11.778 45.9,40.347 12.02,6.707 10.93,3.696 10.93,1.265 10.93,-1.117 12.02,-3.711 9.84,-4.629 v 0" /><path
           inkscape:connector-curvature="0"
           id="path784"
           style="fill:none;stroke:#e37222;stroke-width:15;stroke-linecap:butt;stroke-linejoin:round;stroke-miterlimit:10;stroke-dasharray:15, 24.75;stroke-dashoffset:0;stroke-opacity:1"
           d="M 3378.49,703.117 V 1949.49" /></g></g><path
       inkscape:connector-curvature="0"
       id="path786"
       style="fill:none;stroke:#000000;stroke-width:0.80000001;stroke-linecap:square;stroke-linejoin:miter;stroke-miterlimit:10;stroke-dasharray:none;stroke-opacity:1"
       d="M 114.288,63.9922 V 203.029" /><path
       inkscape:connector-curvature="0"
       id="path788"
       style="fill:none;stroke:#000000;stroke-width:0.80000001;stroke-linecap:square;stroke-linejoin:miter;stroke-miterlimit:10;stroke-dasharray:none;stroke-opacity:1"
       d="M 414.72,63.9922 V 203.029" /><path
       inkscape:connector-curvature="0"
       id="path790"
       style="fill:none;stroke:#000000;stroke-width:0.80000001;stroke-linecap:square;stroke-linejoin:miter;stroke-miterlimit:10;stroke-dasharray:none;stroke-opacity:1"
       d="M 114.288,63.9922 H 414.72" /><path
       inkscape:connector-curvature="0"
       id="path792"
       style="fill:none;stroke:#000000;stroke-width:0.80000001;stroke-linecap:square;stroke-linejoin:miter;stroke-miterlimit:10;stroke-dasharray:none;stroke-opacity:1"
       d="M 114.288,203.029 H 414.72" /><path
       inkscape:connector-curvature="0"
       id="path794"
       style="fill:#ffffff;fill-opacity:1;fill-rule:nonzero;stroke:none;stroke-width:0.1"
       d="m 422.2713,63.799076 h 93 c 2.667,0 4,1.3332 4,4 V 200.20488 c 0,2.667 -1.333,4 -4,4 h -93 c -2.666,0 -4,-1.333 -4,-4 V 67.799076 c 0,-2.6668 1.334,-4 4,-4" /><path
       inkscape:connector-curvature="0"
       id="path796"
       style="fill:none;stroke:#cccccc;stroke-width:1;stroke-linecap:butt;stroke-linejoin:miter;stroke-miterlimit:10;stroke-dasharray:none;stroke-opacity:1"
       d="m 422.2713,63.799076 h 93 c 2.667,0 4,1.3332 4,4 V 200.20488 c 0,2.667 -1.333,4 -4,4 h -93 c -2.666,0 -4,-1.333 -4,-4 V 67.799076 c 0,-2.6668 1.334,-4 4,-4 z" /><path
       inkscape:connector-curvature="0"
       id="path798"
       style="fill:none;stroke:#005293;stroke-width:2;stroke-linecap:square;stroke-linejoin:round;stroke-miterlimit:10;stroke-dasharray:none;stroke-opacity:1"
       d="m 426.2713,188.00188 h 40" /><g
       id="g800"
       transform="translate(114.5513,-10.193124)"><text
         id="text804"
         style="font-variant:normal;font-weight:normal;font-size:20px;font-family:Arial;-inkscape-font-specification:Arial;writing-mode:lr-tb;fill:#000000;fill-opacity:1;fill-rule:nonzero;stroke:none"
         transform="matrix(1,0,0,-1,367.72,191.258)"><tspan
           id="tspan802"
           y="0"
           x="0">u</tspan></text>
<text
         id="text808"
         style="font-variant:normal;font-weight:normal;font-size:14px;font-family:Arial;-inkscape-font-specification:Arial;writing-mode:lr-tb;fill:#000000;fill-opacity:1;fill-rule:nonzero;stroke:none"
         transform="matrix(1,0,0,-1,380.3958,187.97675)"><tspan
           id="tspan806"
           y="0"
           x="0">P</tspan></text>
<text
         id="text812"
         style="font-variant:normal;font-weight:normal;font-size:9.80000019px;font-family:Arial;-inkscape-font-specification:Arial;writing-mode:lr-tb;fill:#000000;fill-opacity:1;fill-rule:nonzero;stroke:none"
         transform="matrix(1,0,0,-1,388.83838,185.67987)"><tspan
           id="tspan810"
           y="0"
           x="0">0</tspan></text>
</g><path
       inkscape:connector-curvature="0"
       id="path814"
       style="fill:none;stroke:#005293;stroke-width:1.5;stroke-linecap:butt;stroke-linejoin:round;stroke-miterlimit:10;stroke-dasharray:1.5, 2.475;stroke-dashoffset:0;stroke-opacity:1"
       d="m 426.2713,156.00188 h 40" /><g
       id="g816"
       transform="translate(114.5513,-10.193124)"><text
         id="text820"
         style="font-variant:normal;font-weight:normal;font-size:20px;font-family:Arial;-inkscape-font-specification:Arial;writing-mode:lr-tb;fill:#000000;fill-opacity:1;fill-rule:nonzero;stroke:none"
         transform="matrix(1,0,0,-1,367.72,159.697)"><tspan
           id="tspan818"
           y="0"
           x="0">t</tspan></text>
<text
         id="text826"
         style="font-variant:normal;font-weight:normal;font-size:14px;font-family:Arial;-inkscape-font-specification:Arial;writing-mode:lr-tb;fill:#000000;fill-opacity:1;fill-rule:nonzero;stroke:none"
         transform="matrix(1,0,0,-1,376.89031,167.35325)"><tspan
           id="tspan822"
           y="0"
           x="0">a</tspan><tspan
           id="tspan824"
           y="13.125"
           x="-1.3285201">u</tspan></text>
<text
         id="text830"
         style="font-variant:normal;font-weight:normal;font-size:9.80000019px;font-family:Arial;-inkscape-font-specification:Arial;writing-mode:lr-tb;fill:#000000;fill-opacity:1;fill-rule:nonzero;stroke:none"
         transform="matrix(1,0,0,-1,384.43484,151.93137)"><tspan
           id="tspan828"
           y="0"
           x="0">P</tspan></text>
<text
         id="text834"
         style="font-variant:normal;font-weight:normal;font-size:6.86000013px;font-family:Arial;-inkscape-font-specification:Arial;writing-mode:lr-tb;fill:#000000;fill-opacity:1;fill-rule:nonzero;stroke:none"
         transform="matrix(1,0,0,-1,390.34461,150.32356)"><tspan
           id="tspan832"
           y="0"
           x="0">0</tspan></text>
</g><path
       inkscape:connector-curvature="0"
       id="path836"
       style="fill:none;stroke:#e37222;stroke-width:2;stroke-linecap:square;stroke-linejoin:round;stroke-miterlimit:10;stroke-dasharray:none;stroke-opacity:1"
       d="m 426.2713,120.79888 h 40" /><g
       id="g838"
       transform="translate(114.5513,-10.193124)"><text
         id="text842"
         style="font-variant:normal;font-weight:normal;font-size:20px;font-family:Arial;-inkscape-font-specification:Arial;writing-mode:lr-tb;fill:#000000;fill-opacity:1;fill-rule:nonzero;stroke:none"
         transform="matrix(1,0,0,-1,367.72,124.055)"><tspan
           id="tspan840"
           y="0"
           x="0">u</tspan></text>
<text
         id="text846"
         style="font-variant:normal;font-weight:normal;font-size:14px;font-family:Arial;-inkscape-font-specification:Arial;writing-mode:lr-tb;fill:#000000;fill-opacity:1;fill-rule:nonzero;stroke:none"
         transform="matrix(1,0,0,-1,380.3958,120.77375)"><tspan
           id="tspan844"
           y="0"
           x="0">P</tspan></text>
<text
         id="text850"
         style="font-variant:normal;font-weight:normal;font-size:9.80000019px;font-family:Arial;-inkscape-font-specification:Arial;writing-mode:lr-tb;fill:#000000;fill-opacity:1;fill-rule:nonzero;stroke:none"
         transform="matrix(1,0,0,-1,388.83838,118.47687)"><tspan
           id="tspan848"
           y="0"
           x="0">1</tspan></text>
</g><path
       inkscape:connector-curvature="0"
       id="path852"
       style="fill:none;stroke:#e37222;stroke-width:1.5;stroke-linecap:butt;stroke-linejoin:round;stroke-miterlimit:10;stroke-dasharray:1.5, 2.475;stroke-dashoffset:0;stroke-opacity:1"
       d="m 426.2713,88.799076 h 40" /><g
       id="g854"
       transform="translate(114.5513,-10.193124)"><text
         id="text858"
         style="font-variant:normal;font-weight:normal;font-size:20px;font-family:Arial;-inkscape-font-specification:Arial;writing-mode:lr-tb;fill:#000000;fill-opacity:1;fill-rule:nonzero;stroke:none"
         transform="matrix(1,0,0,-1,367.72,92.4938)"><tspan
           id="tspan856"
           y="0"
           x="0">t</tspan></text>
<text
         id="text864"
         style="font-variant:normal;font-weight:normal;font-size:14px;font-family:Arial;-inkscape-font-specification:Arial;writing-mode:lr-tb;fill:#000000;fill-opacity:1;fill-rule:nonzero;stroke:none"
         transform="matrix(1,0,0,-1,376.89031,100.15005)"><tspan
           id="tspan860"
           y="0"
           x="0">a</tspan><tspan
           id="tspan862"
           y="13.125"
           x="-1.3285201">u</tspan></text>
<text
         id="text868"
         style="font-variant:normal;font-weight:normal;font-size:9.80000019px;font-family:Arial;-inkscape-font-specification:Arial;writing-mode:lr-tb;fill:#000000;fill-opacity:1;fill-rule:nonzero;stroke:none"
         transform="matrix(1,0,0,-1,384.43484,84.72817)"><tspan
           id="tspan866"
           y="0"
           x="0">P</tspan></text>
<text
         id="text872"
         style="font-variant:normal;font-weight:normal;font-size:6.86000013px;font-family:Arial;-inkscape-font-specification:Arial;writing-mode:lr-tb;fill:#000000;fill-opacity:1;fill-rule:nonzero;stroke:none"
         transform="matrix(1,0,0,-1,390.34461,83.12036)"><tspan
           id="tspan870"
           y="0"
           x="0">1</tspan></text>
</g></g></svg>